<?xml version="1.0" standalone="yes"?>

<svg version="1.1" viewBox="0.0 0.0 960.0 540.0" fill="none" stroke="none" stroke-linecap="square" stroke-miterlimit="10" xmlns="http://www.w3.org/2000/svg" xmlns:xlink="http://www.w3.org/1999/xlink"><clipPath id="g257386d1be_0_170.0"><path d="m0 0l960.0 0l0 540.0l-960.0 0l0 -540.0z" clip-rule="nonzero"></path></clipPath><g clip-path="url(#g257386d1be_0_170.0)"><path fill="#ffffff" d="m0 0l960.0 0l0 540.0l-960.0 0z" fill-rule="evenodd"></path><path fill="#1aaaf8" d="m646.7903 253.10995l0 0c0 -3.3021698 2.676941 -5.979126 5.979126 -5.979126l224.29376 0c1.5857544 0 3.1065674 0.62994385 4.227844 1.7512512c1.1213379 1.1213074 1.7512817 2.6421204 1.7512817 4.2278748l0 23.915771c0 3.302185 -2.677002 5.979126 -5.979126 5.979126l-224.29376 0c-3.302185 0 -5.979126 -2.676941 -5.979126 -5.979126z" fill-rule="evenodd"></path><path fill="#efefef" d="m714.0686 262.8341q0 1.734375 -1.1875 2.671875q-1.171875 0.921875 -3.375 0.921875l-1.34375 0l0 4.5l-1.328125 0l0 -11.421875l2.953125 0q4.28125 0 4.28125 3.328125zm-5.90625 2.453125l1.1875 0q1.765625 0 2.546875 -0.5625q0.796875 -0.578125 0.796875 -1.828125q0 -1.140625 -0.75 -1.6875q-0.734375 -0.5625 -2.296875 -0.5625l-1.484375 0l0 4.640625zm13.3671875 5.640625l-0.25 -1.21875l-0.0625 0q-0.640625 0.796875 -1.28125 1.09375q-0.640625 0.28125 -1.59375 0.28125q-1.265625 0 -2.0 -0.65625q-0.71875 -0.65625 -0.71875 -1.875q0 -2.59375 4.15625 -2.71875l1.453125 -0.046875l0 -0.53125q0 -1.0 -0.4375 -1.484375q-0.4375 -0.484375 -1.390625 -0.484375q-1.0625 0 -2.421875 0.65625l-0.390625 -0.984375q0.625 -0.34375 1.375 -0.53125q0.765625 -0.203125 1.515625 -0.203125q1.53125 0 2.265625 0.6875q0.75 0.671875 0.75 2.171875l0 5.84375l-0.96875 0zm-2.921875 -0.921875q1.203125 0 1.890625 -0.65625q0.703125 -0.671875 0.703125 -1.859375l0 -0.78125l-1.296875 0.0625q-1.546875 0.046875 -2.234375 0.484375q-0.6875 0.421875 -0.6875 1.3125q0 0.703125 0.421875 1.078125q0.4375 0.359375 1.203125 0.359375zm5.1953125 -7.640625l1.390625 0l1.875 4.875q0.625 1.671875 0.765625 2.421875l0.0625 0q0.109375 -0.40625 0.421875 -1.359375q0.328125 -0.96875 2.125 -5.9375l1.390625 0l-3.671875 9.75q-0.546875 1.453125 -1.28125 2.046875q-0.734375 0.609375 -1.796875 0.609375q-0.59375 0 -1.171875 -0.125l0 -1.046875q0.4375 0.09375 0.96875 0.09375q1.328125 0 1.90625 -1.5l0.46875 -1.21875l-3.453125 -8.609375zm20.34375 8.5625l0 -5.578125q0 -1.015625 -0.4375 -1.53125q-0.4375 -0.515625 -1.359375 -0.515625q-1.21875 0 -1.796875 0.703125q-0.578125 0.6875 -0.578125 2.140625l0 4.78125l-1.296875 0l0 -5.578125q0 -1.015625 -0.4375 -1.53125q-0.4375 -0.515625 -1.359375 -0.515625q-1.21875 0 -1.796875 0.734375q-0.5625 0.734375 -0.5625 2.390625l0 4.5l-1.296875 0l0 -8.5625l1.0625 0l0.203125 1.171875l0.0625 0q0.375 -0.625 1.03125 -0.96875q0.671875 -0.359375 1.5 -0.359375q2.015625 0 2.625 1.453125l0.0625 0q0.390625 -0.671875 1.109375 -1.0625q0.734375 -0.390625 1.65625 -0.390625q1.453125 0 2.171875 0.75q0.734375 0.734375 0.734375 2.375l0 5.59375l-1.296875 0zm7.5859375 0.15625q-1.90625 0 -3.0 -1.15625q-1.09375 -1.15625 -1.09375 -3.21875q0 -2.0625 1.015625 -3.28125q1.015625 -1.21875 2.734375 -1.21875q1.609375 0 2.546875 1.0625q0.9375 1.046875 0.9375 2.78125l0 0.828125l-5.890625 0q0.03125 1.5 0.75 2.28125q0.734375 0.78125 2.046875 0.78125q1.375 0 2.734375 -0.578125l0 1.15625q-0.6875 0.296875 -1.3125 0.421875q-0.609375 0.140625 -1.46875 0.140625zm-0.359375 -7.796875q-1.03125 0 -1.640625 0.671875q-0.609375 0.671875 -0.71875 1.859375l4.46875 0q0 -1.21875 -0.546875 -1.875q-0.546875 -0.65625 -1.5625 -0.65625zm11.5703125 7.640625l0 -5.546875q0 -1.046875 -0.484375 -1.5625q-0.46875 -0.515625 -1.484375 -0.515625q-1.34375 0 -1.96875 0.734375q-0.625 0.71875 -0.625 2.390625l0 4.5l-1.296875 0l0 -8.5625l1.0625 0l0.203125 1.171875l0.0625 0q0.40625 -0.640625 1.125 -0.984375q0.71875 -0.34375 1.59375 -0.34375q1.546875 0 2.328125 0.75q0.78125 0.734375 0.78125 2.375l0 5.59375l-1.296875 0zm6.7265625 -0.921875q0.34375 0 0.65625 -0.046875q0.328125 -0.046875 0.515625 -0.109375l0 1.0q-0.203125 0.109375 -0.625 0.171875q-0.40625 0.0625 -0.734375 0.0625q-2.484375 0 -2.484375 -2.625l0 -5.09375l-1.21875 0l0 -0.625l1.21875 -0.53125l0.546875 -1.828125l0.75 0l0 1.984375l2.484375 0l0 1.0l-2.484375 0l0 5.046875q0 0.765625 0.359375 1.1875q0.375 0.40625 1.015625 0.40625zm8.4140625 -1.421875q0 1.203125 -0.890625 1.859375q-0.890625 0.640625 -2.5 0.640625q-1.703125 0 -2.65625 -0.546875l0 -1.203125q0.609375 0.3125 1.3125 0.5q0.71875 0.171875 1.375 0.171875q1.015625 0 1.5625 -0.3125q0.546875 -0.328125 0.546875 -1.0q0 -0.5 -0.4375 -0.84375q-0.4375 -0.359375 -1.6875 -0.84375q-1.203125 -0.453125 -1.703125 -0.78125q-0.5 -0.328125 -0.75 -0.75q-0.25 -0.421875 -0.25 -1.015625q0 -1.046875 0.84375 -1.640625q0.859375 -0.609375 2.34375 -0.609375q1.390625 0 2.703125 0.5625l-0.453125 1.046875q-1.296875 -0.53125 -2.34375 -0.53125q-0.921875 0 -1.390625 0.296875q-0.46875 0.28125 -0.46875 0.796875q0 0.34375 0.171875 0.59375q0.1875 0.234375 0.578125 0.453125q0.390625 0.21875 1.5 0.625q1.515625 0.5625 2.046875 1.125q0.546875 0.5625 0.546875 1.40625zm9.9765625 2.34375l-1.328125 0l0 -10.25l-3.625 0l0 -1.171875l8.5625 0l0 1.171875l-3.609375 0l0 10.25zm8.7578125 0.15625q-1.90625 0 -3.0 -1.15625q-1.09375 -1.15625 -1.09375 -3.21875q0 -2.0625 1.015625 -3.28125q1.015625 -1.21875 2.734375 -1.21875q1.609375 0 2.546875 1.0625q0.9375 1.046875 0.9375 2.78125l0 0.828125l-5.890625 0q0.03125 1.5 0.75 2.28125q0.734375 0.78125 2.046875 0.78125q1.375 0 2.734375 -0.578125l0 1.15625q-0.6875 0.296875 -1.3125 0.421875q-0.609375 0.140625 -1.46875 0.140625zm-0.359375 -7.796875q-1.03125 0 -1.640625 0.671875q-0.609375 0.671875 -0.71875 1.859375l4.46875 0q0 -1.21875 -0.546875 -1.875q-0.546875 -0.65625 -1.5625 -0.65625zm10.9765625 7.640625l-0.25 -1.21875l-0.0625 0q-0.640625 0.796875 -1.28125 1.09375q-0.640625 0.28125 -1.59375 0.28125q-1.265625 0 -2.0 -0.65625q-0.71875 -0.65625 -0.71875 -1.875q0 -2.59375 4.15625 -2.71875l1.453125 -0.046875l0 -0.53125q0 -1.0 -0.4375 -1.484375q-0.4375 -0.484375 -1.390625 -0.484375q-1.0625 0 -2.421875 0.65625l-0.390625 -0.984375q0.625 -0.34375 1.375 -0.53125q0.765625 -0.203125 1.515625 -0.203125q1.53125 0 2.265625 0.6875q0.75 0.671875 0.75 2.171875l0 5.84375l-0.96875 0zm-2.921875 -0.921875q1.203125 0 1.890625 -0.65625q0.703125 -0.671875 0.703125 -1.859375l0 -0.78125l-1.296875 0.0625q-1.546875 0.046875 -2.234375 0.484375q-0.6875 0.421875 -0.6875 1.3125q0 0.703125 0.421875 1.078125q0.4375 0.359375 1.203125 0.359375zm17.476562 0.921875l0 -5.578125q0 -1.015625 -0.4375 -1.53125q-0.4375 -0.515625 -1.359375 -0.515625q-1.21875 0 -1.796875 0.703125q-0.578125 0.6875 -0.578125 2.140625l0 4.78125l-1.296875 0l0 -5.578125q0 -1.015625 -0.4375 -1.53125q-0.4375 -0.515625 -1.359375 -0.515625q-1.21875 0 -1.796875 0.734375q-0.5625 0.734375 -0.5625 2.390625l0 4.5l-1.296875 0l0 -8.5625l1.0625 0l0.203125 1.171875l0.0625 0q0.375 -0.625 1.03125 -0.96875q0.671875 -0.359375 1.5 -0.359375q2.015625 0 2.625 1.453125l0.0625 0q0.390625 -0.671875 1.109375 -1.0625q0.734375 -0.390625 1.65625 -0.390625q1.453125 0 2.171875 0.75q0.734375 0.734375 0.734375 2.375l0 5.59375l-1.296875 0z" fill-rule="nonzero"></path><path fill="#000000" fill-opacity="0.0" d="m494.47534 211.36705l152.31494 53.70079" fill-rule="evenodd"></path><path stroke="#595959" stroke-width="1.0" stroke-linejoin="round" stroke-linecap="butt" d="m494.47534 211.36707l146.65637 51.70578" fill-rule="evenodd"></path><path fill="#595959" stroke="#595959" stroke-width="1.0" stroke-linecap="butt" d="m640.5825 264.63058l4.8290405 -0.048828125l-3.7306519 -3.066681z" fill-rule="evenodd"></path><path fill="#1aaaf8" d="m49.076115 253.1084l0 0c0 -3.302185 2.6769447 -5.979126 5.979122 -5.979126l210.12048 0c1.5857849 0 3.106598 0.62994385 4.2279053 1.7512512c1.1212769 1.1212921 1.7512207 2.642105 1.7512207 4.2278748l0 23.915771c0 3.302185 -2.676941 5.979126 -5.979126 5.979126l-210.12048 0c-3.3021774 0 -5.979122 -2.676941 -5.979122 -5.979126z" fill-rule="evenodd"></path><path fill="#efefef" d="m101.78673 259.44315l-4.0 10.703125l-1.21875 0l4.0 -10.703125l1.21875 0zm6.490967 8.515625q0 1.125 -0.84375 1.734375q-0.828125 0.59375 -2.34375 0.59375q-1.59375 0 -2.484375 -0.5l0 -1.125q0.578125 0.296875 1.234375 0.46875q0.671875 0.15625 1.28125 0.15625q0.953125 0 1.46875 -0.296875q0.515625 -0.3125 0.515625 -0.9375q0 -0.46875 -0.40625 -0.796875q-0.40625 -0.328125 -1.59375 -0.78125q-1.109375 -0.421875 -1.59375 -0.734375q-0.46875 -0.3125 -0.703125 -0.703125q-0.21875 -0.40625 -0.21875 -0.953125q0 -0.96875 0.796875 -1.53125q0.796875 -0.578125 2.1875 -0.578125q1.296875 0 2.53125 0.53125l-0.4375 0.984375q-1.203125 -0.5 -2.1875 -0.5q-0.859375 0 -1.296875 0.28125q-0.4375 0.265625 -0.4375 0.734375q0 0.328125 0.15625 0.5625q0.171875 0.21875 0.53125 0.421875q0.375 0.203125 1.40625 0.59375q1.4375 0.515625 1.9375 1.046875q0.5 0.53125 0.5 1.328125zm4.3980255 1.328125q0.328125 0 0.625 -0.046875q0.3125 -0.046875 0.484375 -0.09375l0 0.921875q-0.203125 0.09375 -0.59375 0.15625q-0.375 0.0625 -0.6875 0.0625q-2.328125 0 -2.328125 -2.453125l0 -4.765625l-1.140625 0l0 -0.59375l1.140625 -0.5l0.515625 -1.71875l0.703125 0l0 1.859375l2.328125 0l0 0.953125l-2.328125 0l0 4.71875q0 0.71875 0.34375 1.109375q0.34375 0.390625 0.9375 0.390625zm7.517807 0.859375l-0.234375 -1.140625l-0.0625 0q-0.59375 0.75 -1.203125 1.015625q-0.59375 0.265625 -1.484375 0.265625q-1.1875 0 -1.875 -0.609375q-0.671875 -0.609375 -0.671875 -1.75q0 -2.4375 3.890625 -2.546875l1.359375 -0.046875l0 -0.5q0 -0.9375 -0.40625 -1.390625q-0.40625 -0.453125 -1.296875 -0.453125q-1.0 0 -2.265625 0.609375l-0.375 -0.921875q0.59375 -0.328125 1.296875 -0.5q0.703125 -0.1875 1.421875 -0.1875q1.4375 0 2.125 0.640625q0.6875 0.625 0.6875 2.03125l0 5.484375l-0.90625 0zm-2.734375 -0.859375q1.125 0 1.765625 -0.625q0.65625 -0.625 0.65625 -1.734375l0 -0.734375l-1.21875 0.0625q-1.4375 0.046875 -2.078125 0.453125q-0.640625 0.390625 -0.640625 1.234375q0 0.65625 0.390625 1.0q0.40625 0.34375 1.125 0.34375zm12.526108 -7.171875l0 0.765625l-1.484375 0.1875q0.203125 0.25 0.359375 0.671875q0.171875 0.40625 0.171875 0.921875q0 1.1875 -0.8125 1.890625q-0.8125 0.703125 -2.21875 0.703125q-0.359375 0 -0.671875 -0.0625q-0.765625 0.40625 -0.765625 1.03125q0 0.328125 0.265625 0.484375q0.265625 0.15625 0.9375 0.15625l1.40625 0q1.3125 0 2.0 0.5625q0.703125 0.546875 0.703125 1.59375q0 1.328125 -1.0625 2.03125q-1.0625 0.703125 -3.125 0.703125q-1.5625 0 -2.421875 -0.59375q-0.859375 -0.578125 -0.859375 -1.65625q0 -0.734375 0.46875 -1.265625q0.46875 -0.53125 1.328125 -0.71875q-0.3125 -0.140625 -0.53125 -0.4375q-0.203125 -0.296875 -0.203125 -0.6875q0 -0.4375 0.234375 -0.765625q0.234375 -0.328125 0.75 -0.640625q-0.625 -0.25 -1.015625 -0.859375q-0.390625 -0.625 -0.390625 -1.40625q0 -1.328125 0.78125 -2.03125q0.796875 -0.71875 2.25 -0.71875q0.625 0 1.125 0.140625l2.78125 0zm-6.40625 9.375q0 0.65625 0.546875 0.984375q0.5625 0.34375 1.578125 0.34375q1.53125 0 2.265625 -0.453125q0.734375 -0.453125 0.734375 -1.25q0 -0.640625 -0.40625 -0.90625q-0.390625 -0.25 -1.5 -0.25l-1.46875 0q-0.828125 0 -1.296875 0.390625q-0.453125 0.40625 -0.453125 1.140625zm0.65625 -6.796875q0 0.84375 0.46875 1.28125q0.484375 0.421875 1.34375 0.421875q1.78125 0 1.78125 -1.734375q0 -1.796875 -1.8125 -1.796875q-0.84375 0 -1.3125 0.46875q-0.46875 0.453125 -0.46875 1.359375zm8.420074 5.453125l-1.203125 0l0 -8.03125l1.203125 0l0 8.03125zm-1.3125 -10.203125q0 -0.421875 0.203125 -0.609375q0.203125 -0.203125 0.515625 -0.203125q0.296875 0 0.5 0.203125q0.21875 0.203125 0.21875 0.609375q0 0.40625 -0.21875 0.609375q-0.203125 0.203125 -0.5 0.203125q-0.3125 0 -0.515625 -0.203125q-0.203125 -0.203125 -0.203125 -0.609375zm9.300751 10.203125l0 -5.1875q0 -0.984375 -0.453125 -1.46875q-0.4375 -0.484375 -1.390625 -0.484375q-1.265625 0 -1.859375 0.6875q-0.578125 0.671875 -0.578125 2.234375l0 4.21875l-1.203125 0l0 -8.03125l0.984375 0l0.1875 1.109375l0.0625 0q0.375 -0.59375 1.046875 -0.921875q0.671875 -0.328125 1.5 -0.328125q1.453125 0 2.1875 0.703125q0.734375 0.6875 0.734375 2.234375l0 5.234375l-1.21875 0zm10.073685 -8.03125l0 0.765625l-1.484375 0.1875q0.203125 0.25 0.359375 0.671875q0.171875 0.40625 0.171875 0.921875q0 1.1875 -0.8125 1.890625q-0.8125 0.703125 -2.21875 0.703125q-0.359375 0 -0.671875 -0.0625q-0.765625 0.40625 -0.765625 1.03125q0 0.328125 0.265625 0.484375q0.265625 0.15625 0.9375 0.15625l1.40625 0q1.3125 0 2.0 0.5625q0.703125 0.546875 0.703125 1.59375q0 1.328125 -1.0625 2.03125q-1.0625 0.703125 -3.125 0.703125q-1.5625 0 -2.421875 -0.59375q-0.859375 -0.578125 -0.859375 -1.65625q0 -0.734375 0.46875 -1.265625q0.46875 -0.53125 1.328125 -0.71875q-0.3125 -0.140625 -0.53125 -0.4375q-0.203125 -0.296875 -0.203125 -0.6875q0 -0.4375 0.234375 -0.765625q0.234375 -0.328125 0.75 -0.640625q-0.625 -0.25 -1.015625 -0.859375q-0.390625 -0.625 -0.390625 -1.40625q0 -1.328125 0.78125 -2.03125q0.796875 -0.71875 2.25 -0.71875q0.625 0 1.125 0.140625l2.78125 0zm-6.40625 9.375q0 0.65625 0.546875 0.984375q0.5625 0.34375 1.578125 0.34375q1.53125 0 2.265625 -0.453125q0.734375 -0.453125 0.734375 -1.25q0 -0.640625 -0.40625 -0.90625q-0.390625 -0.25 -1.5 -0.25l-1.46875 0q-0.828125 0 -1.296875 0.390625q-0.453125 0.40625 -0.453125 1.140625zm0.65625 -6.796875q0 0.84375 0.46875 1.28125q0.484375 0.421875 1.34375 0.421875q1.78125 0 1.78125 -1.734375q0 -1.796875 -1.8125 -1.796875q-0.84375 0 -1.3125 0.46875q-0.46875 0.453125 -0.46875 1.359375zm11.279449 -5.25l-4.0 10.703125l-1.21875 0l4.0 -10.703125l1.21875 0zm5.053467 10.84375q-0.796875 0 -1.453125 -0.28125q-0.640625 -0.296875 -1.078125 -0.890625l-0.078125 0q0.078125 0.703125 0.078125 1.328125l0 3.3125l-1.203125 0l0 -11.640625l0.984375 0l0.171875 1.109375l0.046875 0q0.46875 -0.671875 1.09375 -0.953125q0.625 -0.296875 1.4375 -0.296875q1.59375 0 2.453125 1.09375q0.875 1.09375 0.875 3.0625q0 1.96875 -0.890625 3.0625q-0.875 1.09375 -2.4375 1.09375zm-0.1875 -7.28125q-1.21875 0 -1.78125 0.6875q-0.546875 0.671875 -0.5625 2.15625l0 0.28125q0 1.6875 0.5625 2.421875q0.578125 0.71875 1.8125 0.71875q1.046875 0 1.625 -0.84375q0.59375 -0.84375 0.59375 -2.3125q0 -1.5 -0.59375 -2.296875q-0.578125 -0.8125 -1.65625 -0.8125zm10.356247 7.140625l-0.234375 -1.140625l-0.0625 0q-0.59375 0.75 -1.203125 1.015625q-0.59375 0.265625 -1.484375 0.265625q-1.1875 0 -1.875 -0.609375q-0.671875 -0.609375 -0.671875 -1.75q0 -2.4375 3.890625 -2.546875l1.359375 -0.046875l0 -0.5q0 -0.9375 -0.40625 -1.390625q-0.40625 -0.453125 -1.296875 -0.453125q-1.0 0 -2.265625 0.609375l-0.375 -0.921875q0.59375 -0.328125 1.296875 -0.5q0.703125 -0.1875 1.421875 -0.1875q1.4375 0 2.125 0.640625q0.6875 0.625 0.6875 2.03125l0 5.484375l-0.90625 0zm-2.734375 -0.859375q1.125 0 1.765625 -0.625q0.65625 -0.625 0.65625 -1.734375l0 -0.734375l-1.21875 0.0625q-1.4375 0.046875 -2.078125 0.453125q-0.640625 0.390625 -0.640625 1.234375q0 0.65625 0.390625 1.0q0.40625 0.34375 1.125 0.34375zm4.682358 -7.171875l1.296875 0l1.765625 4.578125q0.578125 1.578125 0.71875 2.265625l0.0625 0q0.09375 -0.375 0.390625 -1.28125q0.3125 -0.90625 1.984375 -5.5625l1.3125 0l-3.453125 9.140625q-0.515625 1.359375 -1.203125 1.921875q-0.671875 0.578125 -1.671875 0.578125q-0.5625 0 -1.09375 -0.125l0 -0.984375q0.390625 0.09375 0.890625 0.09375q1.25 0 1.796875 -1.40625l0.4375 -1.140625l-3.234375 -8.078125zm18.885376 8.03125l0 -5.21875q0 -0.96875 -0.40625 -1.4375q-0.40625 -0.484375 -1.265625 -0.484375q-1.140625 0 -1.6875 0.65625q-0.53125 0.640625 -0.53125 2.0l0 4.484375l-1.21875 0l0 -5.21875q0 -0.96875 -0.421875 -1.4375q-0.40625 -0.484375 -1.28125 -0.484375q-1.140625 0 -1.671875 0.6875q-0.53125 0.6875 -0.53125 2.234375l0 4.21875l-1.203125 0l0 -8.03125l0.984375 0l0.1875 1.109375l0.0625 0q0.34375 -0.59375 0.96875 -0.921875q0.625 -0.328125 1.40625 -0.328125q1.890625 0 2.46875 1.359375l0.046875 0q0.359375 -0.625 1.03125 -0.984375q0.6875 -0.375 1.5625 -0.375q1.359375 0 2.03125 0.703125q0.6875 0.6875 0.6875 2.234375l0 5.234375l-1.21875 0zm6.804779 0.140625q-1.78125 0 -2.8125 -1.078125q-1.03125 -1.078125 -1.03125 -3.015625q0 -1.9375 0.953125 -3.078125q0.953125 -1.140625 2.5625 -1.140625q1.515625 0 2.390625 1.0q0.875 0.984375 0.875 2.609375l0 0.765625l-5.515625 0q0.03125 1.421875 0.703125 2.15625q0.6875 0.71875 1.90625 0.71875q1.296875 0 2.5625 -0.53125l0 1.078125q-0.640625 0.28125 -1.21875 0.390625q-0.5625 0.125 -1.375 0.125zm-0.34375 -7.296875q-0.953125 0 -1.53125 0.640625q-0.578125 0.625 -0.6875 1.734375l4.203125 0q0 -1.15625 -0.515625 -1.765625q-0.515625 -0.609375 -1.46875 -0.609375zm10.660156 7.15625l0 -5.1875q0 -0.984375 -0.453125 -1.46875q-0.4375 -0.484375 -1.390625 -0.484375q-1.265625 0 -1.859375 0.6875q-0.578125 0.671875 -0.578125 2.234375l0 4.21875l-1.203125 0l0 -8.03125l0.984375 0l0.1875 1.109375l0.0625 0q0.375 -0.59375 1.046875 -0.921875q0.671875 -0.328125 1.5 -0.328125q1.453125 0 2.1875 0.703125q0.734375 0.6875 0.734375 2.234375l0 5.234375l-1.21875 0zm6.089325 -0.859375q0.328125 0 0.625 -0.046875q0.3125 -0.046875 0.484375 -0.09375l0 0.921875q-0.203125 0.09375 -0.59375 0.15625q-0.375 0.0625 -0.6875 0.0625q-2.328125 0 -2.328125 -2.453125l0 -4.765625l-1.140625 0l0 -0.59375l1.140625 -0.5l0.515625 -1.71875l0.703125 0l0 1.859375l2.328125 0l0 0.953125l-2.328125 0l0 4.71875q0 0.71875 0.34375 1.109375q0.34375 0.390625 0.9375 0.390625zm7.7677917 -1.328125q0 1.125 -0.84375 1.734375q-0.828125 0.59375 -2.34375 0.59375q-1.59375 0 -2.484375 -0.5l0 -1.125q0.578125 0.296875 1.234375 0.46875q0.671875 0.15625 1.28125 0.15625q0.953125 0 1.46875 -0.296875q0.515625 -0.3125 0.515625 -0.9375q0 -0.46875 -0.40625 -0.796875q-0.40625 -0.328125 -1.59375 -0.78125q-1.109375 -0.421875 -1.59375 -0.734375q-0.46875 -0.3125 -0.703125 -0.703125q-0.21875 -0.40625 -0.21875 -0.953125q0 -0.96875 0.796875 -1.53125q0.796875 -0.578125 2.1875 -0.578125q1.296875 0 2.53125 0.53125l-0.4375 0.984375q-1.203125 -0.5 -2.1875 -0.5q-0.859375 0 -1.296875 0.28125q-0.4375 0.265625 -0.4375 0.734375q0 0.328125 0.15625 0.5625q0.171875 0.21875 0.53125 0.421875q0.375 0.203125 1.40625 0.59375q1.4375 0.515625 1.9375 1.046875q0.5 0.53125 0.5 1.328125z" fill-rule="nonzero"></path><path fill="#000000" fill-opacity="0.0" d="m416.16272 216.1529l-145.00787 48.91339" fill-rule="evenodd"></path><path stroke="#595959" stroke-width="1.0" stroke-linejoin="round" stroke-linecap="butt" d="m416.16272 216.1529l-139.3226 46.995636" fill-rule="evenodd"></path><path fill="#595959" stroke="#595959" stroke-width="1.0" stroke-linecap="butt" d="m276.3122 261.58347l-3.7721252 3.015564l4.8279724 0.114593506z" fill-rule="evenodd"></path><path fill="#1aaaf8" d="m345.7942 84.83394l0 0c0 -3.3021774 2.676941 -5.9791183 5.979126 -5.9791183l210.12048 0c1.5857544 0 3.1065674 0.6299362 4.2279053 1.7512436c1.1212769 1.1212997 1.7512207 2.6421127 1.7512207 4.2278748l0 23.915771c0 3.3021774 -2.676941 5.979126 -5.979126 5.979126l-210.12048 0c-3.302185 0 -5.979126 -2.6769485 -5.979126 -5.979126z" fill-rule="evenodd"></path><path fill="#efefef" d="m414.91537 96.4187q0 2.640625 -1.4375 4.046875q-1.4375 1.40625 -4.140625 1.40625l-2.96875 0l0 -10.703125l3.28125 0q2.5 0 3.875 1.390625q1.390625 1.375 1.390625 3.859375zm-1.3125 0.046875q0 -2.09375 -1.0625 -3.15625q-1.046875 -1.0625 -3.109375 -1.0625l-1.8125 0l0 8.546875l1.515625 0q2.21875 0 3.34375 -1.09375q1.125 -1.09375 1.125 -3.234375zm6.6688538 5.546875q-1.78125 0 -2.8125 -1.078125q-1.03125 -1.078125 -1.03125 -3.015625q0 -1.9375 0.953125 -3.078125q0.953125 -1.140625 2.5625 -1.140625q1.515625 0 2.390625 1.0q0.875 0.984375 0.875 2.609375l0 0.765625l-5.515625 0q0.03125 1.421875 0.703125 2.15625q0.6875 0.71875 1.90625 0.71875q1.296875 0 2.5625 -0.53125l0 1.078125q-0.640625 0.28125 -1.21875 0.390625q-0.5625 0.125 -1.375 0.125zm-0.34375 -7.296875q-0.953125 0 -1.53125 0.640625q-0.578125 0.625 -0.6875 1.734375l4.203125 0q0 -1.15625 -0.515625 -1.765625q-0.515625 -0.609375 -1.46875 -0.609375zm6.9257812 7.15625l-3.046875 -8.03125l1.296875 0l1.734375 4.765625q0.59375 1.671875 0.6875 2.171875l0.0625 0q0.078125 -0.390625 0.5 -1.609375q0.4375 -1.21875 1.9375 -5.328125l1.296875 0l-3.046875 8.03125l-1.421875 0zm8.983063 0.140625q-1.78125 0 -2.8125 -1.078125q-1.03125 -1.078125 -1.03125 -3.015625q0 -1.9375 0.953125 -3.078125q0.953125 -1.140625 2.5625 -1.140625q1.515625 0 2.390625 1.0q0.875 0.984375 0.875 2.609375l0 0.765625l-5.515625 0q0.03125 1.421875 0.703125 2.15625q0.6875 0.71875 1.90625 0.71875q1.296875 0 2.5625 -0.53125l0 1.078125q-0.640625 0.28125 -1.21875 0.390625q-0.5625 0.125 -1.375 0.125zm-0.34375 -7.296875q-0.953125 0 -1.53125 0.640625q-0.578125 0.625 -0.6875 1.734375l4.203125 0q0 -1.15625 -0.515625 -1.765625q-0.515625 -0.609375 -1.46875 -0.609375zm6.378937 7.15625l-1.203125 0l0 -11.390625l1.203125 0l0 11.390625zm9.425751 -4.015625q0 1.953125 -1.0 3.0625q-0.984375 1.09375 -2.71875 1.09375q-1.078125 0 -1.921875 -0.5q-0.828125 -0.5 -1.28125 -1.4375q-0.453125 -0.953125 -0.453125 -2.21875q0 -1.96875 0.984375 -3.0625q0.984375 -1.09375 2.71875 -1.09375q1.6875 0 2.671875 1.125q1.0 1.109375 1.0 3.03125zm-6.109375 0q0 1.53125 0.609375 2.34375q0.609375 0.796875 1.8125 0.796875q1.1875 0 1.796875 -0.796875q0.625 -0.796875 0.625 -2.34375q0 -1.53125 -0.625 -2.328125q-0.609375 -0.796875 -1.8125 -0.796875q-1.203125 0 -1.8125 0.78125q-0.59375 0.78125 -0.59375 2.34375zm11.774292 4.15625q-0.796875 0 -1.453125 -0.28125q-0.640625 -0.296875 -1.078125 -0.890625l-0.078125 0q0.078125 0.703125 0.078125 1.328125l0 3.3125l-1.203125 0l0 -11.640625l0.984375 0l0.171875 1.109375l0.046875 0q0.46875 -0.671875 1.09375 -0.953125q0.625 -0.296875 1.4375 -0.296875q1.59375 0 2.453125 1.09375q0.875 1.09375 0.875 3.0625q0 1.96875 -0.890625 3.0625q-0.875 1.09375 -2.4375 1.09375zm-0.1875 -7.28125q-1.21875 0 -1.78125 0.6875q-0.546875 0.671875 -0.5625 2.15625l0 0.28125q0 1.6875 0.5625 2.421875q0.578125 0.71875 1.8125 0.71875q1.046875 0 1.625 -0.84375q0.59375 -0.84375 0.59375 -2.3125q0 -1.5 -0.59375 -2.296875q-0.578125 -0.8125 -1.65625 -0.8125zm8.825012 7.28125q-1.78125 0 -2.8125 -1.078125q-1.03125 -1.078125 -1.03125 -3.015625q0 -1.9375 0.953125 -3.078125q0.953125 -1.140625 2.5625 -1.140625q1.515625 0 2.390625 1.0q0.875 0.984375 0.875 2.609375l0 0.765625l-5.515625 0q0.03125 1.421875 0.703125 2.15625q0.6875 0.71875 1.90625 0.71875q1.296875 0 2.5625 -0.53125l0 1.078125q-0.640625 0.28125 -1.21875 0.390625q-0.5625 0.125 -1.375 0.125zm-0.34375 -7.296875q-0.953125 0 -1.53125 0.640625q-0.578125 0.625 -0.6875 1.734375l4.203125 0q0 -1.15625 -0.515625 -1.765625q-0.515625 -0.609375 -1.46875 -0.609375zm8.832031 -1.015625q0.53125 0 0.953125 0.078125l-0.15625 1.140625q-0.5 -0.109375 -0.890625 -0.109375q-0.96875 0 -1.671875 0.796875q-0.6875 0.78125 -0.6875 1.953125l0 4.3125l-1.203125 0l0 -8.03125l1.0 0l0.140625 1.484375l0.046875 0q0.453125 -0.78125 1.078125 -1.203125q0.640625 -0.421875 1.390625 -0.421875zm7.555542 3.71875l0 4.453125l-1.25 0l0 -10.703125l2.9375 0q1.96875 0 2.90625 0.75q0.953125 0.75 0.953125 2.265625q0 2.125 -2.15625 2.875l2.90625 4.8125l-1.46875 0l-2.59375 -4.453125l-2.234375 0zm0 -1.0625l1.703125 0q1.328125 0 1.9375 -0.515625q0.609375 -0.53125 0.609375 -1.59375q0 -1.046875 -0.625 -1.515625q-0.625 -0.46875 -2.0 -0.46875l-1.625 0l0 4.09375zm14.559967 1.5q0 1.953125 -1.0 3.0625q-0.984375 1.09375 -2.71875 1.09375q-1.078125 0 -1.921875 -0.5q-0.828125 -0.5 -1.28125 -1.4375q-0.453125 -0.953125 -0.453125 -2.21875q0 -1.96875 0.984375 -3.0625q0.984375 -1.09375 2.71875 -1.09375q1.6875 0 2.671875 1.125q1.0 1.109375 1.0 3.03125zm-6.109375 0q0 1.53125 0.609375 2.34375q0.609375 0.796875 1.8125 0.796875q1.1875 0 1.796875 -0.796875q0.625 -0.796875 0.625 -2.34375q0 -1.53125 -0.625 -2.328125q-0.609375 -0.796875 -1.8125 -0.796875q-1.203125 0 -1.8125 0.78125q-0.59375 0.78125 -0.59375 2.34375zm9.2430725 4.015625l-1.203125 0l0 -11.390625l1.203125 0l0 11.390625zm5.8945007 0.140625q-1.78125 0 -2.8125 -1.078125q-1.03125 -1.078125 -1.03125 -3.015625q0 -1.9375 0.953125 -3.078125q0.953125 -1.140625 2.5625 -1.140625q1.515625 0 2.390625 1.0q0.875 0.984375 0.875 2.609375l0 0.765625l-5.515625 0q0.03125 1.421875 0.703125 2.15625q0.6875 0.71875 1.90625 0.71875q1.296875 0 2.5625 -0.53125l0 1.078125q-0.640625 0.28125 -1.21875 0.390625q-0.5625 0.125 -1.375 0.125zm-0.34375 -7.296875q-0.953125 0 -1.53125 0.640625q-0.578125 0.625 -0.6875 1.734375l4.203125 0q0 -1.15625 -0.515625 -1.765625q-0.515625 -0.609375 -1.46875 -0.609375z" fill-rule="nonzero"></path><path fill="#000000" fill-opacity="0.0" d="m456.83997 192.39119l0 -77.66928" fill-rule="evenodd"></path><path stroke="#595959" stroke-width="1.0" stroke-linejoin="round" stroke-linecap="butt" d="m456.83997 192.3912l0 -71.6693" fill-rule="evenodd"></path><path fill="#595959" stroke="#595959" stroke-width="1.0" stroke-linecap="butt" d="m458.4917 120.72191l-1.6517334 -4.538101l-1.6517334 4.538101z" fill-rule="evenodd"></path><path fill="#254356" d="m371.65884 198.37032l0 0c0 -3.3021698 2.6769714 -5.979126 5.979126 -5.979126l158.40396 0c1.5857544 0 3.1065674 0.62994385 4.2279053 1.7512512c1.1212769 1.1213074 1.7512207 2.6421204 1.7512207 4.2278748l0 23.915771c0 3.302185 -2.676941 5.979126 -5.979126 5.979126l-158.40396 0c-3.3021545 0 -5.979126 -2.676941 -5.979126 -5.979126z" fill-rule="evenodd"></path><path fill="#efefef" d="m443.9845 207.45383l0 1.203125l-1.375 0.359375q0.375 0.578125 0.375 1.3125q0 1.40625 -0.984375 2.1875q-0.96875 0.78125 -2.71875 0.78125l-0.421875 -0.015625l-0.359375 -0.046875q-0.359375 0.28125 -0.359375 0.625q0 0.515625 1.3125 0.515625l1.484375 0q1.4375 0 2.1875 0.625q0.75 0.609375 0.75 1.8125q0 1.53125 -1.28125 2.375q-1.265625 0.84375 -3.65625 0.84375q-1.828125 0 -2.796875 -0.640625q-0.96875 -0.625 -0.96875 -1.78125q0 -0.78125 0.484375 -1.328125q0.5 -0.53125 1.453125 -0.75q-0.359375 -0.15625 -0.640625 -0.515625q-0.265625 -0.359375 -0.265625 -0.75q0 -0.5 0.28125 -0.828125q0.296875 -0.34375 0.84375 -0.65625q-0.6875 -0.296875 -1.09375 -0.953125q-0.40625 -0.65625 -0.40625 -1.546875q0 -1.4375 0.921875 -2.21875q0.9375 -0.78125 2.671875 -0.78125q0.359375 0 0.859375 0.078125q0.515625 0.0625 0.65625 0.09375l3.046875 0zm-6.75 9.96875q0 0.5 0.46875 0.78125q0.484375 0.28125 1.328125 0.28125q1.28125 0 2.0 -0.359375q0.734375 -0.34375 0.734375 -0.953125q0 -0.5 -0.4375 -0.6875q-0.421875 -0.1875 -1.3125 -0.1875l-1.234375 0q-0.65625 0 -1.109375 0.3125q-0.4375 0.3125 -0.4375 0.8125zm0.875 -7.109375q0 0.703125 0.3125 1.125q0.328125 0.40625 1.0 0.40625q0.671875 0 0.984375 -0.40625q0.3125 -0.421875 0.3125 -1.125q0 -1.578125 -1.296875 -1.578125q-1.3125 0 -1.3125 1.578125zm12.1796875 -3.03125q0.484375 0 0.8125 0.078125l-0.1875 2.234375q-0.28125 -0.078125 -0.703125 -0.078125q-1.140625 0 -1.78125 0.59375q-0.625 0.578125 -0.625 1.625l0 4.453125l-2.390625 0l0 -8.734375l1.8125 0l0.34375 1.46875l0.125 0q0.40625 -0.734375 1.09375 -1.1875q0.6875 -0.453125 1.5 -0.453125zm7.9375 8.90625l-0.453125 -1.1875l-0.0625 0q-0.609375 0.75 -1.25 1.046875q-0.625 0.296875 -1.65625 0.296875q-1.25 0 -1.984375 -0.71875q-0.71875 -0.71875 -0.71875 -2.046875q0 -1.390625 0.96875 -2.046875q0.984375 -0.671875 2.9375 -0.734375l1.515625 -0.046875l0 -0.390625q0 -1.328125 -1.359375 -1.328125q-1.046875 0 -2.453125 0.640625l-0.796875 -1.609375q1.515625 -0.796875 3.34375 -0.796875q1.765625 0 2.703125 0.765625q0.9375 0.765625 0.9375 2.328125l0 5.828125l-1.671875 0zm-0.703125 -4.046875l-0.921875 0.03125q-1.03125 0.03125 -1.546875 0.375q-0.5 0.34375 -0.5 1.046875q0 1.0 1.15625 1.0q0.828125 0 1.3125 -0.46875q0.5 -0.484375 0.5 -1.265625l0 -0.71875zm12.8828125 4.046875l-2.375 0l0 -5.109375q0 -0.9375 -0.34375 -1.40625q-0.328125 -0.484375 -1.0625 -0.484375q-1.0 0 -1.453125 0.671875q-0.4375 0.671875 -0.4375 2.21875l0 4.109375l-2.390625 0l0 -8.734375l1.828125 0l0.3125 1.109375l0.140625 0q0.390625 -0.625 1.09375 -0.953125q0.703125 -0.328125 1.59375 -0.328125q1.515625 0 2.296875 0.828125q0.796875 0.828125 0.796875 2.375l0 5.703125zm6.140625 -1.75q0.625 0 1.5 -0.265625l0 1.765625q-0.890625 0.40625 -2.1875 0.40625q-1.4375 0 -2.09375 -0.71875q-0.640625 -0.734375 -0.640625 -2.171875l0 -4.21875l-1.140625 0l0 -1.0l1.3125 -0.796875l0.6875 -1.84375l1.515625 0l0 1.859375l2.453125 0l0 1.78125l-2.453125 0l0 4.21875q0 0.5 0.28125 0.75q0.296875 0.234375 0.765625 0.234375z" fill-rule="nonzero"></path><path fill="#000000" fill-opacity="0.0" d="m49.07616 180.28723l222.07875 0l0 35.87401l-222.07875 0z" fill-rule="evenodd"></path><path fill="#999999" d="m126.51397 194.50612q-1.375 0 -2.125 1.03125q-0.75 1.03125 -0.75 2.859375q0 3.828125 2.875 3.828125q1.203125 0 2.9062424 -0.609375l0 2.03125q-1.40625 0.59375 -3.1406174 0.59375q-2.484375 0 -3.8125 -1.515625q-1.3125 -1.515625 -1.3125 -4.34375q0 -1.78125 0.640625 -3.109375q0.65625 -1.34375 1.859375 -2.0625q1.21875 -0.71875 2.859375 -0.71875q1.6562424 0 3.3437424 0.8125l-0.78125 1.96875q-0.640625 -0.3125 -1.2968674 -0.53125q-0.640625 -0.234375 -1.265625 -0.234375zm7.05468 5.1875q0 1.296875 0.421875 1.96875q0.421875 0.65625 1.390625 0.65625q0.953125 0 1.359375 -0.65625q0.421875 -0.65625 0.421875 -1.96875q0 -1.296875 -0.421875 -1.9375q-0.421875 -0.65625 -1.375 -0.65625q-0.953125 0 -1.375 0.65625q-0.421875 0.640625 -0.421875 1.9375zm6.03125 0q0 2.140625 -1.125 3.34375q-1.125 1.203125 -3.125 1.203125q-1.265625 0 -2.234375 -0.546875q-0.953125 -0.5625 -1.46875 -1.59375q-0.515625 -1.03125 -0.515625 -2.40625q0 -2.140625 1.109375 -3.328125q1.125 -1.1875 3.15625 -1.1875q1.25 0 2.203125 0.546875q0.96875 0.546875 1.484375 1.578125q0.515625 1.015625 0.515625 2.390625zm4.359375 4.390625l-2.390625 0l0 -12.15625l2.390625 0l0 12.15625zm4.8828125 0l-2.390625 0l0 -12.15625l2.390625 0l0 12.15625zm6.1171875 -7.203125q-0.765625 0 -1.203125 0.484375q-0.421875 0.46875 -0.484375 1.359375l3.34375 0q-0.015625 -0.890625 -0.46875 -1.359375q-0.4375 -0.484375 -1.1875 -0.484375zm0.328125 7.359375q-2.109375 0 -3.296875 -1.15625q-1.1875 -1.171875 -1.1875 -3.3125q0 -2.1875 1.09375 -3.390625q1.109375 -1.203125 3.046875 -1.203125q1.84375 0 2.875 1.0625q1.03125 1.046875 1.03125 2.90625l0 1.15625l-5.625 0q0.03125 1.015625 0.59375 1.59375q0.5625 0.5625 1.578125 0.5625q0.796875 0 1.5 -0.15625q0.703125 -0.171875 1.46875 -0.53125l0 1.84375q-0.625 0.3125 -1.34375 0.46875q-0.703125 0.15625 -1.734375 0.15625zm9.046875 0q-4.078125 0 -4.078125 -4.484375q0 -2.21875 1.109375 -3.390625q1.109375 -1.1875 3.1875 -1.1875q1.515625 0 2.71875 0.59375l-0.703125 1.84375q-0.5625 -0.21875 -1.046875 -0.359375q-0.484375 -0.15625 -0.96875 -0.15625q-1.859375 0 -1.859375 2.640625q0 2.5625 1.859375 2.5625q0.6875 0 1.265625 -0.171875q0.59375 -0.1875 1.171875 -0.578125l0 2.03125q-0.578125 0.375 -1.171875 0.515625q-0.578125 0.140625 -1.484375 0.140625zm8.3671875 -1.90625q0.625 0 1.5 -0.265625l0 1.765625q-0.890625 0.40625 -2.1875 0.40625q-1.4375 0 -2.09375 -0.71875q-0.640625 -0.734375 -0.640625 -2.171875l0 -4.21875l-1.140625 0l0 -1.0l1.3125 -0.796875l0.6875 -1.84375l1.515625 0l0 1.859375l2.453125 0l0 1.78125l-2.453125 0l0 4.21875q0 0.5 0.28125 0.75q0.296875 0.234375 0.765625 0.234375zm3.1640625 -9.25q0 -1.15625 1.296875 -1.15625q1.296875 0 1.296875 1.15625q0 0.5625 -0.328125 0.875q-0.328125 0.296875 -0.96875 0.296875q-1.296875 0 -1.296875 -1.171875zm2.484375 11.0l-2.390625 0l0 -8.734375l2.390625 0l0 8.734375zm4.3984375 -4.390625q0 1.296875 0.421875 1.96875q0.421875 0.65625 1.390625 0.65625q0.953125 0 1.359375 -0.65625q0.421875 -0.65625 0.421875 -1.96875q0 -1.296875 -0.421875 -1.9375q-0.421875 -0.65625 -1.375 -0.65625q-0.953125 0 -1.375 0.65625q-0.421875 0.640625 -0.421875 1.9375zm6.03125 0q0 2.140625 -1.125 3.34375q-1.125 1.203125 -3.125 1.203125q-1.265625 0 -2.234375 -0.546875q-0.953125 -0.5625 -1.46875 -1.59375q-0.515625 -1.03125 -0.515625 -2.40625q0 -2.140625 1.109375 -3.328125q1.125 -1.1875 3.15625 -1.1875q1.25 0 2.203125 0.546875q0.96875 0.546875 1.484375 1.578125q0.515625 1.015625 0.515625 2.390625zm10.03125 4.390625l-2.375 0l0 -5.109375q0 -0.9375 -0.34375 -1.40625q-0.328125 -0.484375 -1.0625 -0.484375q-1.0 0 -1.453125 0.671875q-0.4375 0.671875 -0.4375 2.21875l0 4.109375l-2.390625 0l0 -8.734375l1.828125 0l0.3125 1.109375l0.140625 0q0.390625 -0.625 1.09375 -0.953125q0.703125 -0.328125 1.59375 -0.328125q1.515625 0 2.296875 0.828125q0.796875 0.828125 0.796875 2.375l0 5.703125z" fill-rule="nonzero"></path><path fill="#000000" fill-opacity="0.0" d="m653.8728 180.28723l222.07874 0l0 35.87401l-222.07874 0z" fill-rule="evenodd"></path><path fill="#999999" d="m743.6192 200.91237q0 1.546875 -1.125 2.4375q-1.109375 0.890625 -3.09375 0.890625q-1.828125 0 -3.234375 -0.6875l0 -2.25q1.15625 0.515625 1.953125 0.734375q0.8125 0.203125 1.46875 0.203125q0.796875 0 1.21875 -0.296875q0.4375 -0.3125 0.4375 -0.921875q0 -0.328125 -0.1875 -0.59375q-0.1875 -0.265625 -0.5625 -0.5q-0.359375 -0.25 -1.46875 -0.78125q-1.046875 -0.484375 -1.578125 -0.9375q-0.515625 -0.453125 -0.828125 -1.046875q-0.3125 -0.609375 -0.3125 -1.421875q0 -1.515625 1.015625 -2.375q1.03125 -0.875 2.84375 -0.875q0.890625 0 1.703125 0.21875q0.8125 0.203125 1.6875 0.59375l-0.78125 1.875q-0.90625 -0.375 -1.515625 -0.515625q-0.59375 -0.15625 -1.171875 -0.15625q-0.6875 0 -1.0625 0.328125q-0.359375 0.3125 -0.359375 0.828125q0 0.328125 0.140625 0.5625q0.15625 0.234375 0.484375 0.46875q0.328125 0.21875 1.53125 0.796875q1.609375 0.765625 2.203125 1.53125q0.59375 0.765625 0.59375 1.890625zm8.0625 3.171875l-0.3125 -1.125l-0.125 0q-0.390625 0.609375 -1.09375 0.953125q-0.703125 0.328125 -1.59375 0.328125q-1.546875 0 -2.328125 -0.828125q-0.78125 -0.828125 -0.78125 -2.375l0 -5.6875l2.390625 0l0 5.09375q0 0.953125 0.328125 1.421875q0.34375 0.46875 1.078125 0.46875q1.0 0 1.4375 -0.65625q0.453125 -0.671875 0.453125 -2.21875l0 -4.109375l2.375 0l0 8.734375l-1.828125 0zm9.1875 -8.90625q1.546875 0 2.421875 1.21875q0.875 1.203125 0.875 3.296875q0 2.171875 -0.90625 3.359375q-0.890625 1.1875 -2.453125 1.1875q-1.53125 0 -2.40625 -1.125l-0.171875 0l-0.390625 0.96875l-1.828125 0l0 -12.15625l2.390625 0l0 2.828125q0 0.53125 -0.09375 1.71875l0.09375 0q0.828125 -1.296875 2.46875 -1.296875zm-0.765625 1.90625q-0.875 0 -1.28125 0.546875q-0.40625 0.546875 -0.421875 1.796875l0 0.25q0 1.40625 0.40625 2.015625q0.421875 0.609375 1.328125 0.609375q0.734375 0 1.171875 -0.671875q0.4375 -0.671875 0.4375 -1.96875q0 -1.28125 -0.4375 -1.921875q-0.4375 -0.65625 -1.203125 -0.65625zm5.328125 10.84375q-0.921875 0 -1.578125 -0.1875l0 -1.875q0.546875 0.140625 1.125 0.140625q0.609375 0 0.875 -0.34375q0.28125 -0.328125 0.28125 -0.984375l0 -9.328125l2.390625 0l0 9.6875q0 1.390625 -0.8125 2.140625q-0.796875 0.75 -2.28125 0.75zm0.609375 -14.84375q0 -1.15625 1.296875 -1.15625q1.296875 0 1.296875 1.15625q0 0.5625 -0.328125 0.875q-0.328125 0.296875 -0.96875 0.296875q-1.296875 0 -1.296875 -1.171875zm8.6015625 3.796875q-0.765625 0 -1.203125 0.484375q-0.421875 0.46875 -0.484375 1.359375l3.34375 0q-0.015625 -0.890625 -0.46875 -1.359375q-0.4375 -0.484375 -1.1875 -0.484375zm0.328125 7.359375q-2.109375 0 -3.296875 -1.15625q-1.1875 -1.171875 -1.1875 -3.3125q0 -2.1875 1.09375 -3.390625q1.109375 -1.203125 3.046875 -1.203125q1.84375 0 2.875 1.0625q1.03125 1.046875 1.03125 2.90625l0 1.15625l-5.625 0q0.03125 1.015625 0.59375 1.59375q0.5625 0.5625 1.578125 0.5625q0.796875 0 1.5 -0.15625q0.703125 -0.171875 1.46875 -0.53125l0 1.84375q-0.625 0.3125 -1.34375 0.46875q-0.703125 0.15625 -1.734375 0.15625zm9.046875 0q-4.078125 0 -4.078125 -4.484375q0 -2.21875 1.109375 -3.390625q1.109375 -1.1875 3.1875 -1.1875q1.515625 0 2.71875 0.59375l-0.703125 1.84375q-0.5625 -0.21875 -1.046875 -0.359375q-0.484375 -0.15625 -0.96875 -0.15625q-1.859375 0 -1.859375 2.640625q0 2.5625 1.859375 2.5625q0.6875 0 1.265625 -0.171875q0.59375 -0.1875 1.171875 -0.578125l0 2.03125q-0.578125 0.375 -1.171875 0.515625q-0.578125 0.140625 -1.484375 0.140625zm8.3671875 -1.90625q0.625 0 1.5 -0.265625l0 1.765625q-0.890625 0.40625 -2.1875 0.40625q-1.4375 0 -2.09375 -0.71875q-0.640625 -0.734375 -0.640625 -2.171875l0 -4.21875l-1.140625 0l0 -1.0l1.3125 -0.796875l0.6875 -1.84375l1.515625 0l0 1.859375l2.453125 0l0 1.78125l-2.453125 0l0 4.21875q0 0.5 0.28125 0.75q0.296875 0.234375 0.765625 0.234375z" fill-rule="nonzero"></path><path fill="#000000" fill-opacity="0.0" d="m345.79422 17.952755l222.07877 0l0 35.874016l-222.07877 0z" fill-rule="evenodd"></path><path fill="#999999" d="m443.29062 35.39039l0.78125 0q1.15625 0 1.703125 -0.375q0.546875 -0.390625 0.546875 -1.203125q0 -0.8125 -0.5625 -1.15625q-0.5625 -0.34375 -1.734375 -0.34375l-0.734375 0l0 3.078125zm0 1.96875l0 4.390625l-2.421875 0l0 -11.421875l3.328125 0q2.328125 0 3.4375 0.84375q1.125 0.84375 1.125 2.578125q0 1.0 -0.5625 1.796875q-0.546875 0.78125 -1.5625 1.21875q2.578125 3.859375 3.359375 4.984375l-2.6875 0l-2.71875 -4.390625l-1.296875 0zm9.859375 0q0 1.296875 0.421875 1.96875q0.421875 0.65625 1.390625 0.65625q0.953125 0 1.359375 -0.65625q0.421875 -0.65625 0.421875 -1.96875q0 -1.296875 -0.421875 -1.9375q-0.421875 -0.65625 -1.375 -0.65625q-0.953125 0 -1.375 0.65625q-0.421875 0.640625 -0.421875 1.9375zm6.03125 0q0 2.140625 -1.125 3.34375q-1.125 1.203125 -3.125 1.203125q-1.265625 0 -2.234375 -0.546875q-0.953125 -0.5625 -1.46875 -1.59375q-0.515625 -1.03125 -0.515625 -2.40625q0 -2.140625 1.109375 -3.328125q1.125 -1.1875 3.15625 -1.1875q1.25 0 2.203125 0.546875q0.96875 0.546875 1.484375 1.578125q0.515625 1.015625 0.515625 2.390625zm4.359375 4.390625l-2.390625 0l0 -12.15625l2.390625 0l0 12.15625zm6.1171875 -7.203125q-0.765625 0 -1.203125 0.484375q-0.421875 0.46875 -0.484375 1.359375l3.34375 0q-0.015625 -0.890625 -0.46875 -1.359375q-0.4375 -0.484375 -1.1875 -0.484375zm0.328125 7.359375q-2.109375 0 -3.296875 -1.15625q-1.1875 -1.171875 -1.1875 -3.3125q0 -2.1875 1.09375 -3.390625q1.109375 -1.203125 3.046875 -1.203125q1.84375 0 2.875 1.0625q1.03125 1.046875 1.03125 2.90625l0 1.15625l-5.625 0q0.03125 1.015625 0.59375 1.59375q0.5625 0.5625 1.578125 0.5625q0.796875 0 1.5 -0.15625q0.703125 -0.171875 1.46875 -0.53125l0 1.84375q-0.625 0.3125 -1.34375 0.46875q-0.703125 0.15625 -1.734375 0.15625z" fill-rule="nonzero"></path></g></svg>

